<svg viewBox="0 0 48 32" xmlns="http://www.w3.org/2000/svg"><rect width="48" height="32" rx="4" fill="#1A1F71"/><path d="M19.5 21h-3.2l2-12.4h3.2L19.5 21zm13.3-12.1c-.6-.3-1.6-.5-2.9-.5-3.2 0-5.4 1.7-5.4 4.1 0 1.8 1.6 2.8 2.8 3.4 1.2.6 1.6 1 1.6 1.5 0 .8-1 1.2-1.9 1.2-1.2 0-1.9-.2-2.9-.6l-.4-.2-.4 2.7c.7.3 2.1.6 3.5.6 3.4 0 5.6-1.7 5.6-4.2 0-1.4-.8-2.5-2.7-3.4-1.1-.6-1.8-.9-1.8-1.5 0-.5.6-1 1.8-1 1 0 1.8.2 2.4.5l.3.1.4-2.7z" fill="#fff"/><path d="M37.3 8.6h-2.5c-.8 0-1.3.2-1.7 1L28.8 21h3.4l.7-1.9h4.1l.4 1.9H40L37.3 8.6zm-3.5 8.1l1.7-4.7.5 2.3.5 2.4h-2.7z" fill="#fff"/><path d="M15.6 8.6L12.4 17l-.3-1.7c-.6-2-2.4-4.2-4.4-5.3l2.9 11h3.4l5.1-12.4h-3.5z" fill="#fff"/><path d="M9.8 8.6H4.6l-.1.3c4 1 6.7 3.5 7.8 6.5l-1.1-5.7c-.2-.8-.8-1-1.4-1.1z" fill="#F7B600"/></svg>